<svg width="24" height="23" viewBox="0 0 24 23" fill="none" xmlns="http://www.w3.org/2000/svg">
<path d="M12.0516 3.91962V3.92717H15.9522V9.10043H17.6427V2.26493V2.24407V2.23657H12.0516V3.91451V3.91962Z" fill="#333333"/>
<path d="M17.6427 13.9069V13.8994H15.9522V19.0727H12.0516V20.7505V20.7556V20.7633H17.6427V13.9278V13.9069Z" fill="#333333"/>
<path d="M23.8859 11.2692L19.9178 8.26482C19.8647 8.22366 19.8043 8.20679 19.7462 8.20679C19.5966 8.20679 19.4566 8.3251 19.4566 8.49666V9.77658C19.4566 9.93605 19.326 10.0664 19.1667 10.0664H17.6428H15.9522H15.0826C14.9233 10.0664 14.7953 10.1944 14.7953 10.3539V12.6458C14.7953 12.8053 14.9233 12.9333 15.0826 12.9333H15.9522H17.6428H19.1667C19.326 12.9333 19.4566 13.0637 19.4566 13.223V14.5031C19.4566 14.6746 19.5966 14.7929 19.7462 14.7929C19.8043 14.7929 19.8647 14.7761 19.9178 14.7349L23.8859 11.7305C24.038 11.6146 24.038 11.3851 23.8859 11.2692Z" fill="#333333"/>
<path d="M9.59306 0.036377C9.47953 0.0387207 9.36122 0.0533926 9.24277 0.0870957L1.79681 2.2366L1.31377 2.37666L0.743953 2.54091C0.301969 2.66888 0 3.07228 0 3.53353V19.4664C0 19.9277 0.301969 20.3309 0.743953 20.459L1.31377 20.6233L1.79681 20.7634L9.24277 22.9128C9.36122 22.9465 9.47953 22.9635 9.59306 22.9635C10.262 22.9635 10.844 22.4201 10.844 21.7076V20.7634V19.0728V3.92719V2.2366V1.2923C10.844 0.579846 10.262 0.036377 9.59306 0.036377ZM7.47727 12.5011V10.5012C7.47727 10.3685 7.58367 10.2646 7.71403 10.2646H8.499C8.62941 10.2646 8.73319 10.3685 8.73319 10.5012V12.5011C8.73319 12.6315 8.62941 12.7353 8.499 12.7353H7.71403C7.58367 12.7353 7.47727 12.6315 7.47727 12.5011Z" fill="#333333"/>
</svg>
